<svg id="visual" viewBox="0 0 900 900" width="900" height="900" xmlns="http://www.w3.org/2000/svg" xmlns:xlink="http://www.w3.org/1999/xlink" version="1.1"><path d="M479 0L483.7 25C488.3 50 497.7 100 493.8 150C490 200 473 250 459.5 300C446 350 436 400 442.2 450C448.3 500 470.7 550 483.8 600C497 650 501 700 487.8 750C474.7 800 444.3 850 429.2 875L414 900L0 900L0 875C0 850 0 800 0 750C0 700 0 650 0 600C0 550 0 500 0 450C0 400 0 350 0 300C0 250 0 200 0 150C0 100 0 50 0 25L0 0Z" fill="#7928ca"></path><path d="M446 0L432 25C418 50 390 100 392.3 150C394.7 200 427.3 250 435.2 300C443 350 426 400 421 450C416 500 423 550 435.3 600C447.7 650 465.3 700 466.5 750C467.7 800 452.3 850 444.7 875L437 900L0 900L0 875C0 850 0 800 0 750C0 700 0 650 0 600C0 550 0 500 0 450C0 400 0 350 0 300C0 250 0 200 0 150C0 100 0 50 0 25L0 0Z" fill="#951ec2"></path><path d="M385 0L390.7 25C396.3 50 407.7 100 406.3 150C405 200 391 250 383.3 300C375.7 350 374.3 400 380.8 450C387.3 500 401.7 550 410.8 600C420 650 424 700 411.7 750C399.3 800 370.7 850 356.3 875L342 900L0 900L0 875C0 850 0 800 0 750C0 700 0 650 0 600C0 550 0 500 0 450C0 400 0 350 0 300C0 250 0 200 0 150C0 100 0 50 0 25L0 0Z" fill="#ac13ba"></path><path d="M366 0L350.3 25C334.7 50 303.3 100 304.5 150C305.7 200 339.3 250 347 300C354.7 350 336.3 400 332.3 450C328.3 500 338.7 550 342.8 600C347 650 345 700 344.8 750C344.7 800 346.3 850 347.2 875L348 900L0 900L0 875C0 850 0 800 0 750C0 700 0 650 0 600C0 550 0 500 0 450C0 400 0 350 0 300C0 250 0 200 0 150C0 100 0 50 0 25L0 0Z" fill="#bf06b1"></path><path d="M245 0L246.3 25C247.7 50 250.3 100 250.7 150C251 200 249 250 256.8 300C264.7 350 282.3 400 279.3 450C276.3 500 252.7 550 248.7 600C244.7 650 260.3 700 262.3 750C264.3 800 252.7 850 246.8 875L241 900L0 900L0 875C0 850 0 800 0 750C0 700 0 650 0 600C0 550 0 500 0 450C0 400 0 350 0 300C0 250 0 200 0 150C0 100 0 50 0 25L0 0Z" fill="#d000a8"></path><path d="M234 0L231 25C228 50 222 100 217.2 150C212.3 200 208.7 250 213.7 300C218.7 350 232.3 400 239 450C245.7 500 245.3 550 243 600C240.7 650 236.3 700 227.5 750C218.7 800 205.3 850 198.7 875L192 900L0 900L0 875C0 850 0 800 0 750C0 700 0 650 0 600C0 550 0 500 0 450C0 400 0 350 0 300C0 250 0 200 0 150C0 100 0 50 0 25L0 0Z" fill="#de009f"></path><path d="M152 0L154.8 25C157.7 50 163.3 100 168.2 150C173 200 177 250 175.7 300C174.3 350 167.7 400 171.7 450C175.7 500 190.3 550 191.2 600C192 650 179 700 170 750C161 800 156 850 153.5 875L151 900L0 900L0 875C0 850 0 800 0 750C0 700 0 650 0 600C0 550 0 500 0 450C0 400 0 350 0 300C0 250 0 200 0 150C0 100 0 50 0 25L0 0Z" fill="#eb0095"></path><path d="M146 0L146.8 25C147.7 50 149.3 100 145 150C140.7 200 130.3 250 124.7 300C119 350 118 400 116.5 450C115 500 113 550 113.5 600C114 650 117 700 120.5 750C124 800 128 850 130 875L132 900L0 900L0 875C0 850 0 800 0 750C0 700 0 650 0 600C0 550 0 500 0 450C0 400 0 350 0 300C0 250 0 200 0 150C0 100 0 50 0 25L0 0Z" fill="#f6008a"></path><path d="M83 0L81.7 25C80.3 50 77.7 100 74.7 150C71.7 200 68.3 250 70 300C71.7 350 78.3 400 80 450C81.7 500 78.3 550 76 600C73.7 650 72.3 700 73.2 750C74 800 77 850 78.5 875L80 900L0 900L0 875C0 850 0 800 0 750C0 700 0 650 0 600C0 550 0 500 0 450C0 400 0 350 0 300C0 250 0 200 0 150C0 100 0 50 0 25L0 0Z" fill="#ff0080"></path></svg>