<svg id="visual" viewBox="0 0 1440 753" width="1440" height="753" xmlns="http://www.w3.org/2000/svg" xmlns:xlink="http://www.w3.org/1999/xlink" version="1.1"><path d="M727 0L733.2 31.3C739.3 62.7 751.7 125.3 744.5 188.2C737.3 251 710.7 314 696.5 376.8C682.3 439.7 680.7 502.3 689.2 565C697.7 627.7 716.3 690.3 725.7 721.7L735 753L0 753L0 721.7C0 690.3 0 627.7 0 565C0 502.3 0 439.7 0 376.8C0 314 0 251 0 188.2C0 125.3 0 62.7 0 31.3L0 0Z" fill="#7928ca"></path><path d="M599 0L614.5 31.3C630 62.7 661 125.3 662.8 188.2C664.7 251 637.3 314 629.2 376.8C621 439.7 632 502.3 619.5 565C607 627.7 571 690.3 553 721.7L535 753L0 753L0 721.7C0 690.3 0 627.7 0 565C0 502.3 0 439.7 0 376.8C0 314 0 251 0 188.2C0 125.3 0 62.7 0 31.3L0 0Z" fill="#921fc3"></path><path d="M635 0L626.5 31.3C618 62.7 601 125.3 596 188.2C591 251 598 314 607 376.8C616 439.7 627 502.3 634.8 565C642.7 627.7 647.3 690.3 649.7 721.7L652 753L0 753L0 721.7C0 690.3 0 627.7 0 565C0 502.3 0 439.7 0 376.8C0 314 0 251 0 188.2C0 125.3 0 62.7 0 31.3L0 0Z" fill="#a715bc"></path><path d="M443 0L448.8 31.3C454.7 62.7 466.3 125.3 475.7 188.2C485 251 492 314 495.2 376.8C498.3 439.7 497.7 502.3 496.7 565C495.7 627.7 494.3 690.3 493.7 721.7L493 753L0 753L0 721.7C0 690.3 0 627.7 0 565C0 502.3 0 439.7 0 376.8C0 314 0 251 0 188.2C0 125.3 0 62.7 0 31.3L0 0Z" fill="#b90ab4"></path><path d="M340 0L354 31.3C368 62.7 396 125.3 408.7 188.2C421.3 251 418.7 314 405.5 376.8C392.3 439.7 368.7 502.3 352.3 565C336 627.7 327 690.3 322.5 721.7L318 753L0 753L0 721.7C0 690.3 0 627.7 0 565C0 502.3 0 439.7 0 376.8C0 314 0 251 0 188.2C0 125.3 0 62.7 0 31.3L0 0Z" fill="#c901ac"></path><path d="M260 0L281.8 31.3C303.7 62.7 347.3 125.3 364.3 188.2C381.3 251 371.7 314 372.8 376.8C374 439.7 386 502.3 391.5 565C397 627.7 396 690.3 395.5 721.7L395 753L0 753L0 721.7C0 690.3 0 627.7 0 565C0 502.3 0 439.7 0 376.8C0 314 0 251 0 188.2C0 125.3 0 62.7 0 31.3L0 0Z" fill="#d700a4"></path><path d="M317 0L298.5 31.3C280 62.7 243 125.3 236.7 188.2C230.3 251 254.7 314 277.8 376.8C301 439.7 323 502.3 336 565C349 627.7 353 690.3 355 721.7L357 753L0 753L0 721.7C0 690.3 0 627.7 0 565C0 502.3 0 439.7 0 376.8C0 314 0 251 0 188.2C0 125.3 0 62.7 0 31.3L0 0Z" fill="#e3009b"></path><path d="M241 0L229.5 31.3C218 62.7 195 125.3 198 188.2C201 251 230 314 236.3 376.8C242.7 439.7 226.3 502.3 210.8 565C195.3 627.7 180.7 690.3 173.3 721.7L166 753L0 753L0 721.7C0 690.3 0 627.7 0 565C0 502.3 0 439.7 0 376.8C0 314 0 251 0 188.2C0 125.3 0 62.7 0 31.3L0 0Z" fill="#ee0092"></path><path d="M179 0L164.8 31.3C150.7 62.7 122.3 125.3 125.8 188.2C129.3 251 164.7 314 174.7 376.8C184.7 439.7 169.3 502.3 150.2 565C131 627.7 108 690.3 96.5 721.7L85 753L0 753L0 721.7C0 690.3 0 627.7 0 565C0 502.3 0 439.7 0 376.8C0 314 0 251 0 188.2C0 125.3 0 62.7 0 31.3L0 0Z" fill="#f70089"></path><path d="M60 0L64.3 31.3C68.7 62.7 77.3 125.3 71.7 188.2C66 251 46 314 43.7 376.8C41.3 439.7 56.7 502.3 56.5 565C56.3 627.7 40.7 690.3 32.8 721.7L25 753L0 753L0 721.7C0 690.3 0 627.7 0 565C0 502.3 0 439.7 0 376.8C0 314 0 251 0 188.2C0 125.3 0 62.7 0 31.3L0 0Z" fill="#ff0080"></path></svg>