<svg id="visual" viewBox="0 0 900 600" width="900" height="600" xmlns="http://www.w3.org/2000/svg" xmlns:xlink="http://www.w3.org/1999/xlink" version="1.1"><g stroke-width="1" stroke-linejoin="bevel"><path d="M378 301L279 316L368 420Z" fill="#d31a50" stroke="#d31a50"></path><path d="M279 316L305 439L368 420Z" fill="#f4343d" stroke="#f4343d"></path><path d="M368 420L463 387L378 301Z" fill="#f83939" stroke="#f83939"></path><path d="M279 316L197 336L305 439Z" fill="#f4343d" stroke="#f4343d"></path><path d="M239 525L314 513L305 439Z" fill="#d81d4e" stroke="#d81d4e"></path><path d="M305 439L314 513L368 420Z" fill="#e72746" stroke="#e72746"></path><path d="M368 420L408 528L463 387Z" fill="#d81d4e" stroke="#d81d4e"></path><path d="M534 328L435 213L378 301Z" fill="#d31a50" stroke="#d31a50"></path><path d="M378 301L291 171L279 316Z" fill="#ef2f40" stroke="#ef2f40"></path><path d="M279 316L213 202L197 336Z" fill="#d81d4e" stroke="#d81d4e"></path><path d="M197 336L163 418L305 439Z" fill="#fb3e35" stroke="#fb3e35"></path><path d="M314 513L408 528L368 420Z" fill="#f83939" stroke="#f83939"></path><path d="M435 213L291 171L378 301Z" fill="#d31a50" stroke="#d31a50"></path><path d="M163 418L239 525L305 439Z" fill="#ff4331" stroke="#ff4331"></path><path d="M314 513L381 600L408 528Z" fill="#f83939" stroke="#f83939"></path><path d="M291 171L213 202L279 316Z" fill="#d31a50" stroke="#d31a50"></path><path d="M104 328L133 438L163 418Z" fill="#fb3e35" stroke="#fb3e35"></path><path d="M615 400L534 328L463 387Z" fill="#e22349" stroke="#e22349"></path><path d="M463 387L534 328L378 301Z" fill="#f83939" stroke="#f83939"></path><path d="M104 328L163 418L197 336Z" fill="#ff4331" stroke="#ff4331"></path><path d="M163 418L133 438L239 525Z" fill="#f4343d" stroke="#f4343d"></path><path d="M213 202L104 328L197 336Z" fill="#e72746" stroke="#e72746"></path><path d="M268 600L381 600L314 513Z" fill="#eb2b43" stroke="#eb2b43"></path><path d="M408 528L535 520L463 387Z" fill="#dd204b" stroke="#dd204b"></path><path d="M166 600L268 600L239 525Z" fill="#f4343d" stroke="#f4343d"></path><path d="M239 525L268 600L314 513Z" fill="#fb3e35" stroke="#fb3e35"></path><path d="M424 106L319 102L291 171Z" fill="#fb3e35" stroke="#fb3e35"></path><path d="M291 171L171 117L213 202Z" fill="#ff4331" stroke="#ff4331"></path><path d="M535 600L535 520L408 528Z" fill="#e22349" stroke="#e22349"></path><path d="M534 328L537 197L435 213Z" fill="#ef2f40" stroke="#ef2f40"></path><path d="M435 213L424 106L291 171Z" fill="#dd204b" stroke="#dd204b"></path><path d="M574 210L537 197L534 328Z" fill="#dd204b" stroke="#dd204b"></path><path d="M512 92L424 106L435 213Z" fill="#ef2f40" stroke="#ef2f40"></path><path d="M628 312L574 210L534 328Z" fill="#eb2b43" stroke="#eb2b43"></path><path d="M537 197L512 92L435 213Z" fill="#f4343d" stroke="#f4343d"></path><path d="M535 520L615 400L463 387Z" fill="#d31a50" stroke="#d31a50"></path><path d="M535 600L568 524L535 520Z" fill="#e72746" stroke="#e72746"></path><path d="M535 520L568 524L615 400Z" fill="#ef2f40" stroke="#ef2f40"></path><path d="M104 328L65 464L133 438Z" fill="#e22349" stroke="#e22349"></path><path d="M133 438L166 600L239 525Z" fill="#f83939" stroke="#f83939"></path><path d="M319 102L171 117L291 171Z" fill="#ef2f40" stroke="#ef2f40"></path><path d="M213 202L65 231L104 328Z" fill="#e22349" stroke="#e22349"></path><path d="M615 400L628 312L534 328Z" fill="#f4343d" stroke="#f4343d"></path><path d="M65 464L166 600L133 438Z" fill="#fb3e35" stroke="#fb3e35"></path><path d="M171 117L65 231L213 202Z" fill="#eb2b43" stroke="#eb2b43"></path><path d="M104 328L0 432L65 464Z" fill="#fb3e35" stroke="#fb3e35"></path><path d="M381 600L535 600L408 528Z" fill="#ef2f40" stroke="#ef2f40"></path><path d="M572 124L537 197L574 210Z" fill="#eb2b43" stroke="#eb2b43"></path><path d="M572 124L512 92L537 197Z" fill="#e72746" stroke="#e72746"></path><path d="M437 0L287 0L319 102Z" fill="#ff4331" stroke="#ff4331"></path><path d="M715 231L572 124L574 210Z" fill="#ef2f40" stroke="#ef2f40"></path><path d="M233 0L120 102L171 117Z" fill="#e72746" stroke="#e72746"></path><path d="M171 117L120 102L65 231Z" fill="#f4343d" stroke="#f4343d"></path><path d="M233 0L171 117L319 102Z" fill="#d81d4e" stroke="#d81d4e"></path><path d="M0 185L0 320L65 231Z" fill="#e22349" stroke="#e22349"></path><path d="M65 231L0 320L104 328Z" fill="#e22349" stroke="#e22349"></path><path d="M0 320L0 432L104 328Z" fill="#f83939" stroke="#f83939"></path><path d="M65 464L79 600L166 600Z" fill="#e22349" stroke="#e22349"></path><path d="M0 526L79 600L65 464Z" fill="#e22349" stroke="#e22349"></path><path d="M437 0L319 102L424 106Z" fill="#d31a50" stroke="#d31a50"></path><path d="M535 600L604 600L568 524Z" fill="#f4343d" stroke="#f4343d"></path><path d="M726 502L736 425L615 400Z" fill="#ef2f40" stroke="#ef2f40"></path><path d="M615 400L704 331L628 312Z" fill="#e22349" stroke="#e22349"></path><path d="M736 425L704 331L615 400Z" fill="#ff4331" stroke="#ff4331"></path><path d="M628 312L715 231L574 210Z" fill="#d81d4e" stroke="#d81d4e"></path><path d="M489 0L437 0L512 92Z" fill="#f83939" stroke="#f83939"></path><path d="M512 92L437 0L424 106Z" fill="#fb3e35" stroke="#fb3e35"></path><path d="M287 0L233 0L319 102Z" fill="#eb2b43" stroke="#eb2b43"></path><path d="M0 432L0 526L65 464Z" fill="#fb3e35" stroke="#fb3e35"></path><path d="M120 102L0 185L65 231Z" fill="#fb3e35" stroke="#fb3e35"></path><path d="M0 62L0 185L120 102Z" fill="#eb2b43" stroke="#eb2b43"></path><path d="M589 0L489 0L512 92Z" fill="#eb2b43" stroke="#eb2b43"></path><path d="M704 331L715 231L628 312Z" fill="#d31a50" stroke="#d31a50"></path><path d="M572 124L589 0L512 92Z" fill="#ff4331" stroke="#ff4331"></path><path d="M726 502L615 400L568 524Z" fill="#ef2f40" stroke="#ef2f40"></path><path d="M837 307L787 213L715 231Z" fill="#fb3e35" stroke="#fb3e35"></path><path d="M0 526L0 600L79 600Z" fill="#d81d4e" stroke="#d81d4e"></path><path d="M604 600L726 502L568 524Z" fill="#f4343d" stroke="#f4343d"></path><path d="M233 0L90 0L120 102Z" fill="#d81d4e" stroke="#d81d4e"></path><path d="M678 0L589 0L572 124Z" fill="#ff4331" stroke="#ff4331"></path><path d="M90 0L0 62L120 102Z" fill="#fb3e35" stroke="#fb3e35"></path><path d="M763 521L785 413L736 425Z" fill="#f83939" stroke="#f83939"></path><path d="M736 425L785 413L704 331Z" fill="#eb2b43" stroke="#eb2b43"></path><path d="M737 600L763 521L726 502Z" fill="#f83939" stroke="#f83939"></path><path d="M726 502L763 521L736 425Z" fill="#fb3e35" stroke="#fb3e35"></path><path d="M787 213L738 127L715 231Z" fill="#dd204b" stroke="#dd204b"></path><path d="M715 231L738 127L572 124Z" fill="#e22349" stroke="#e22349"></path><path d="M604 600L737 600L726 502Z" fill="#eb2b43" stroke="#eb2b43"></path><path d="M837 307L715 231L704 331Z" fill="#f83939" stroke="#f83939"></path><path d="M90 0L0 0L0 62Z" fill="#eb2b43" stroke="#eb2b43"></path><path d="M766 0L678 0L738 127Z" fill="#e22349" stroke="#e22349"></path><path d="M738 127L678 0L572 124Z" fill="#fb3e35" stroke="#fb3e35"></path><path d="M900 373L837 307L785 413Z" fill="#dd204b" stroke="#dd204b"></path><path d="M785 413L837 307L704 331Z" fill="#fb3e35" stroke="#fb3e35"></path><path d="M787 213L777 106L738 127Z" fill="#eb2b43" stroke="#eb2b43"></path><path d="M900 373L785 413L900 526Z" fill="#e22349" stroke="#e22349"></path><path d="M900 194L777 106L787 213Z" fill="#d81d4e" stroke="#d81d4e"></path><path d="M737 600L813 600L763 521Z" fill="#d31a50" stroke="#d31a50"></path><path d="M900 60L766 0L777 106Z" fill="#f4343d" stroke="#f4343d"></path><path d="M777 106L766 0L738 127Z" fill="#fb3e35" stroke="#fb3e35"></path><path d="M900 526L785 413L763 521Z" fill="#ff4331" stroke="#ff4331"></path><path d="M837 307L900 194L787 213Z" fill="#eb2b43" stroke="#eb2b43"></path><path d="M900 373L900 324L837 307Z" fill="#e22349" stroke="#e22349"></path><path d="M900 324L900 194L837 307Z" fill="#ef2f40" stroke="#ef2f40"></path><path d="M813 600L900 526L763 521Z" fill="#dd204b" stroke="#dd204b"></path><path d="M813 600L900 600L900 526Z" fill="#ff4331" stroke="#ff4331"></path><path d="M900 194L900 60L777 106Z" fill="#d81d4e" stroke="#d81d4e"></path><path d="M900 60L900 0L766 0Z" fill="#eb2b43" stroke="#eb2b43"></path></g></svg>