<svg xmlns="http://www.w3.org/2000/svg" xmlns:xlink="http://www.w3.org/1999/xlink" id="visual" viewBox="0 0 1720 600" width="1720" height="600" version="1.1"><path d="M0 300L23.8 304.2C47.7 308.3 95.3 316.7 143.2 323.7C191 330.7 239 336.3 286.8 343C334.7 349.7 382.3 357.3 430 359.3C477.7 361.3 525.3 357.7 573.2 349.5C621 341.3 669 328.7 716.8 320.8C764.7 313 812.3 310 860 312C907.7 314 955.3 321 1003.2 330.3C1051 339.7 1099 351.3 1146.8 349.3C1194.7 347.3 1242.3 331.7 1290 324.3C1337.7 317 1385.3 318 1433.2 324.7C1481 331.3 1529 343.7 1576.8 340.3C1624.7 337 1672.3 318 1696.2 308.5L1720 299L1720 601L1696.2 601C1672.3 601 1624.7 601 1576.8 601C1529 601 1481 601 1433.2 601C1385.3 601 1337.7 601 1290 601C1242.3 601 1194.7 601 1146.8 601C1099 601 1051 601 1003.2 601C955.3 601 907.7 601 860 601C812.3 601 764.7 601 716.8 601C669 601 621 601 573.2 601C525.3 601 477.7 601 430 601C382.3 601 334.7 601 286.8 601C239 601 191 601 143.2 601C95.3 601 47.7 601 23.8 601L0 601Z" fill="#7928ca"/><path d="M0 420L23.8 412.8C47.7 405.7 95.3 391.3 143.2 384C191 376.7 239 376.3 286.8 376.2C334.7 376 382.3 376 430 380.5C477.7 385 525.3 394 573.2 397.2C621 400.3 669 397.7 716.8 399.5C764.7 401.3 812.3 407.7 860 409.2C907.7 410.7 955.3 407.3 1003.2 397.8C1051 388.3 1099 372.7 1146.8 367.7C1194.7 362.7 1242.3 368.3 1290 369.8C1337.7 371.3 1385.3 368.7 1433.2 367.3C1481 366 1529 366 1576.8 364.3C1624.7 362.7 1672.3 359.3 1696.2 357.7L1720 356L1720 601L1696.2 601C1672.3 601 1624.7 601 1576.8 601C1529 601 1481 601 1433.2 601C1385.3 601 1337.7 601 1290 601C1242.3 601 1194.7 601 1146.8 601C1099 601 1051 601 1003.2 601C955.3 601 907.7 601 860 601C812.3 601 764.7 601 716.8 601C669 601 621 601 573.2 601C525.3 601 477.7 601 430 601C382.3 601 334.7 601 286.8 601C239 601 191 601 143.2 601C95.3 601 47.7 601 23.8 601L0 601Z" fill="#ac13ba"/><path d="M0 413L23.8 418.5C47.7 424 95.3 435 143.2 440.8C191 446.7 239 447.3 286.8 444C334.7 440.7 382.3 433.3 430 434.7C477.7 436 525.3 446 573.2 451.8C621 457.7 669 459.3 716.8 451.8C764.7 444.3 812.3 427.7 860 427C907.7 426.3 955.3 441.7 1003.2 445C1051 448.3 1099 439.7 1146.8 435.5C1194.7 431.3 1242.3 431.7 1290 433.5C1337.7 435.3 1385.3 438.7 1433.2 439.5C1481 440.3 1529 438.7 1576.8 440.5C1624.7 442.3 1672.3 447.7 1696.2 450.3L1720 453L1720 601L1696.2 601C1672.3 601 1624.7 601 1576.8 601C1529 601 1481 601 1433.2 601C1385.3 601 1337.7 601 1290 601C1242.3 601 1194.7 601 1146.8 601C1099 601 1051 601 1003.2 601C955.3 601 907.7 601 860 601C812.3 601 764.7 601 716.8 601C669 601 621 601 573.2 601C525.3 601 477.7 601 430 601C382.3 601 334.7 601 286.8 601C239 601 191 601 143.2 601C95.3 601 47.7 601 23.8 601L0 601Z" fill="#d000a8"/><path d="M0 479L23.8 484.8C47.7 490.7 95.3 502.3 143.2 507.3C191 512.3 239 510.7 286.8 510.8C334.7 511 382.3 513 430 514C477.7 515 525.3 515 573.2 513.2C621 511.3 669 507.7 716.8 502.7C764.7 497.7 812.3 491.3 860 487.7C907.7 484 955.3 483 1003.2 480.7C1051 478.3 1099 474.7 1146.8 471.5C1194.7 468.3 1242.3 465.7 1290 466.2C1337.7 466.7 1385.3 470.3 1433.2 470C1481 469.7 1529 465.3 1576.8 466.5C1624.7 467.7 1672.3 474.3 1696.2 477.7L1720 481L1720 601L1696.2 601C1672.3 601 1624.7 601 1576.8 601C1529 601 1481 601 1433.2 601C1385.3 601 1337.7 601 1290 601C1242.3 601 1194.7 601 1146.8 601C1099 601 1051 601 1003.2 601C955.3 601 907.7 601 860 601C812.3 601 764.7 601 716.8 601C669 601 621 601 573.2 601C525.3 601 477.7 601 430 601C382.3 601 334.7 601 286.8 601C239 601 191 601 143.2 601C95.3 601 47.7 601 23.8 601L0 601Z" fill="#eb0095"/><path d="M0 556L23.8 553.7C47.7 551.3 95.3 546.7 143.2 545C191 543.3 239 544.7 286.8 545.7C334.7 546.7 382.3 547.3 430 547C477.7 546.7 525.3 545.3 573.2 546.3C621 547.3 669 550.7 716.8 549C764.7 547.3 812.3 540.7 860 538.5C907.7 536.3 955.3 538.7 1003.2 542.7C1051 546.7 1099 552.3 1146.8 551.5C1194.7 550.7 1242.3 543.3 1290 541.3C1337.7 539.3 1385.3 542.7 1433.2 546.5C1481 550.3 1529 554.7 1576.8 550.2C1624.7 545.7 1672.3 532.3 1696.2 525.7L1720 519L1720 601L1696.2 601C1672.3 601 1624.7 601 1576.8 601C1529 601 1481 601 1433.2 601C1385.3 601 1337.7 601 1290 601C1242.3 601 1194.7 601 1146.8 601C1099 601 1051 601 1003.2 601C955.3 601 907.7 601 860 601C812.3 601 764.7 601 716.8 601C669 601 621 601 573.2 601C525.3 601 477.7 601 430 601C382.3 601 334.7 601 286.8 601C239 601 191 601 143.2 601C95.3 601 47.7 601 23.8 601L0 601Z" fill="#ff0080"/></svg>